<?xml version="1.0" encoding="UTF-8"?>
<svg width="240" height="48" viewBox="0 0 240 48" fill="none" xmlns="http://www.w3.org/2000/svg" role="img" aria-label="Materna360 logo">
  <title>Materna360</title>
  <defs>
    <linearGradient id="g" x1="0" y1="0" x2="0" y2="1">
      <stop offset="0%" stop-color="#FF2A75"/>
      <stop offset="100%" stop-color="#FF005E"/>
    </linearGradient>
  </defs>
  <g transform="translate(8,8)">
    <!-- Wordmark: Materna -->
    <path fill="#2F3A56" d="M18.7 24.2V6.1h3.6l4.4 7.5 4.4-7.5h3.6v18.1h-3.4V12.1l-4.6 7.7h-.1l-4.6-7.7v12.1h-3.3zm25.4 0V9.2h-5.7V6.1h14.9v3.1h-5.7v15H44.1zm16.8.3c-4.6 0-7.8-3.3-7.8-7.3 0-4.1 3.2-7.4 7.9-7.4 2.9 0 4.9 1 6.3 2.6l-2.2 2.1c-1-1-2.2-1.7-4-1.7-2.6 0-4.5 2-4.5 4.5 0 2.5 1.9 4.5 4.6 4.5 1.7 0 3-0.7 4-1.7l2.1 2.1c-1.5 1.7-3.6 2.6-6.3 2.6zm13.4-.3V6.1h3.4v18.1h-3.4zm8.2 0V9.2h-5.7V6.1h14.9v3.1h-5.7v15h-3.5zm19.9.3c-4.6 0-7.8-3.3-7.8-7.3 0-4.1 3.2-7.4 7.9-7.4 2.9 0 4.9 1 6.3 2.6l-2.2 2.1c-1-1-2.2-1.7-4-1.7-2.6 0-4.5 2-4.5 4.5 0 2.5 1.9 4.5 4.6 4.5 1.7 0 3-0.7 4-1.7l2.1 2.1c-1.5 1.7-3.6 2.6-6.3 2.6z"/>
    <!-- Heart -->
    <path d="M126.5 10.5c1.8-2.2 5.2-2.3 7.2-0.1 2-2.2 5.4-2.1 7.2 0.1 1.9 2.3 1.2 5.4-1.2 7.4-2.1 1.8-5.9 4.2-6 4.3-.2.1-.4.1-.6 0-.1-.1-3.9-2.5-6-4.3-2.4-2-3.1-5.1-1.2-7.4z" fill="url(#g)"/>
    <!-- 360 -->
    <path fill="#2F3A56" d="M150.2 24.3c-2.7 0-4.9-1.1-6.3-2.7l2.1-2c1 1.1 2.5 1.9 4.2 1.9 1.6 0 2.7-.7 2.7-1.8 0-1.1-1.1-1.7-3-1.7h-1.7v-2.7h1.6c1.7 0 2.8-.6 2.8-1.7 0-1-1-1.7-2.5-1.7-1.5 0-2.9.7-3.8 1.7l-2-2.1c1.4-1.6 3.6-2.6 6-2.6 3.4 0 5.8 1.7 5.8 4.4 0 1.8-1.2 3.1-3.1 3.7 2 .4 3.4 1.8 3.4 3.7 0 2.9-2.6 4.6-6.2 4.6zm11.9-12.4c3.8 0 6.6 2.8 6.6 6.6 0 3.9-2.8 6.7-6.6 6.7s-6.6-2.8-6.6-6.7c0-3.8 2.8-6.6 6.6-6.6zm0 10.4c2.2 0 3.6-1.7 3.6-3.8 0-2.1-1.4-3.8-3.6-3.8s-3.6 1.7-3.6 3.8c0 2.1 1.4 3.8 3.6 3.8zm14.8 2c-3.9 0-6.9-2.8-6.9-6.7 0-3.8 3-6.6 6.9-6.6s6.9 2.8 6.9 6.6c0 3.9-3 6.7-6.9 6.7zm0-3c1.9 0 3.4-1.7 3.4-3.8 0-2-1.5-3.7-3.4-3.7-2 0-3.4 1.7-3.4 3.7 0 2.1 1.5 3.8 3.4 3.8z"/>
  </g>
</svg>
